<?xml version="1.0" encoding="UTF-8" standalone="no"?>
<!-- Created with Inkscape (http://www.inkscape.org/) -->

<svg
   xmlns:dc="http://purl.org/dc/elements/1.1/"
   xmlns:cc="http://creativecommons.org/ns#"
   xmlns:rdf="http://www.w3.org/1999/02/22-rdf-syntax-ns#"
   xmlns:svg="http://www.w3.org/2000/svg"
   xmlns="http://www.w3.org/2000/svg"
   xmlns:xlink="http://www.w3.org/1999/xlink"
   xmlns:sodipodi="http://sodipodi.sourceforge.net/DTD/sodipodi-0.dtd"
   xmlns:inkscape="http://www.inkscape.org/namespaces/inkscape"
   width="256"
   height="256"
   id="svg2"
   sodipodi:version="0.32"
   inkscape:version="0.48.4 r9939"
   sodipodi:docname="hippo.svg"
   version="1.0"
   inkscape:output_extension="org.inkscape.output.svg.inkscape"
   inkscape:export-filename="/data1/tmp/n/hippo64.png"
   inkscape:export-xdpi="22.5"
   inkscape:export-ydpi="22.5">
  <defs
     id="defs4">
    <linearGradient
       id="linearGradient5327">
      <stop
         style="stop-color:#000000;stop-opacity:1;"
         offset="0"
         id="stop5329" />
      <stop
         style="stop-color:#626260;stop-opacity:1;"
         offset="1"
         id="stop5331" />
    </linearGradient>
    <linearGradient
       id="linearGradient3869">
      <stop
         style="stop-color:#000000;stop-opacity:1;"
         offset="0"
         id="stop3871" />
      <stop
         style="stop-color:#5d6062;stop-opacity:1;"
         offset="1"
         id="stop3873" />
    </linearGradient>
    <linearGradient
       inkscape:collect="always"
       id="linearGradient26209">
      <stop
         style="stop-color:#b8b8b8;stop-opacity:1;"
         offset="0"
         id="stop26211" />
      <stop
         style="stop-color:#b8b8b8;stop-opacity:0;"
         offset="1"
         id="stop26213" />
    </linearGradient>
    <linearGradient
       inkscape:collect="always"
       id="linearGradient2555">
      <stop
         style="stop-color: rgb(255, 255, 255); stop-opacity: 1;"
         offset="0"
         id="stop2557" />
      <stop
         style="stop-color: rgb(255, 255, 255); stop-opacity: 0;"
         offset="1"
         id="stop2559" />
    </linearGradient>
    <linearGradient
       inkscape:collect="always"
       xlink:href="#linearGradient2555"
       id="linearGradient2449"
       gradientUnits="userSpaceOnUse"
       gradientTransform="matrix(-0.5914583,0,0,0.5914584,210.0216,142.2324)"
       x1="-344.15295"
       y1="274.711"
       x2="-395.84943"
       y2="425.39993" />
    <linearGradient
       inkscape:collect="always"
       xlink:href="#linearGradient26209"
       id="linearGradient26242"
       gradientUnits="userSpaceOnUse"
       gradientTransform="translate(373.64199,318.34399)"
       x1="85.985443"
       y1="76.305641"
       x2="68.308311"
       y2="58.80706" />
    <linearGradient
       inkscape:collect="always"
       xlink:href="#linearGradient2555"
       id="linearGradient2998"
       gradientUnits="userSpaceOnUse"
       gradientTransform="matrix(-0.56459401,0,0,0.56459202,226.39573,154.22584)"
       x1="-344.15295"
       y1="274.711"
       x2="-395.84943"
       y2="425.39993" />
    <linearGradient
       inkscape:collect="always"
       xlink:href="#linearGradient5327"
       id="linearGradient5333"
       x1="502.25479"
       y1="490.46609"
       x2="508.31268"
       y2="382.35675"
       gradientUnits="userSpaceOnUse"
       spreadMethod="pad"
       gradientTransform="matrix(0.95457957,0,0,0.95457603,25.183112,18.405759)" />
  </defs>
  <sodipodi:namedview
     id="base"
     pagecolor="#ffffff"
     bordercolor="#666666"
     borderopacity="1.0"
     inkscape:pageopacity="0.0"
     inkscape:pageshadow="2"
     inkscape:zoom="1.78"
     inkscape:cx="223.09091"
     inkscape:cy="141.12664"
     inkscape:document-units="px"
     inkscape:current-layer="layer1"
     inkscape:window-width="1280"
     inkscape:window-height="753"
     inkscape:window-x="-2"
     inkscape:window-y="-3"
     showgrid="true"
     inkscape:window-maximized="1"
     inkscape:showpageshadow="false">
    <inkscape:grid
       type="xygrid"
       id="grid3004"
       empspacing="8"
       visible="true"
       enabled="true"
       snapvisiblegridlinesonly="true" />
  </sodipodi:namedview>
  <metadata
     id="metadata7">
    <rdf:RDF>
      <cc:Work
         rdf:about="">
        <dc:format>image/svg+xml</dc:format>
        <dc:type
           rdf:resource="http://purl.org/dc/dcmitype/StillImage" />
        <dc:title></dc:title>
        <dc:creator>
          <cc:Agent>
            <dc:title />
          </cc:Agent>
        </dc:creator>
        <dc:subject>
          <rdf:Bag />
        </dc:subject>
        <cc:license
           rdf:resource="http://creativecommons.org/licenses/publicdomain/" />
        <dc:description />
        <dc:contributor>
          <cc:Agent>
            <dc:title />
          </cc:Agent>
        </dc:contributor>
      </cc:Work>
      <cc:License
         rdf:about="http://creativecommons.org/licenses/publicdomain/">
        <cc:permits
           rdf:resource="http://creativecommons.org/ns#Reproduction" />
        <cc:permits
           rdf:resource="http://creativecommons.org/ns#Distribution" />
        <cc:permits
           rdf:resource="http://creativecommons.org/ns#DerivativeWorks" />
      </cc:License>
    </rdf:RDF>
  </metadata>
  <g
     inkscape:label="Layer 1"
     inkscape:groupmode="layer"
     id="layer1"
     transform="translate(-373.642,-318.344)">
    <rect
       inkscape:export-ydpi="7.7063322"
       inkscape:export-xdpi="7.7063322"
       inkscape:export-filename="C:\Documents and Settings\Molumen\Desktop\path3511111.png"
       transform="scale(-1,1)"
       ry="33.875519"
       rx="33.875648"
       y="334.36285"
       x="-613.4798"
       height="224.31538"
       width="224.33368"
       id="rect1942"
       style="fill:#79d624;fill-opacity:1;fill-rule:evenodd;stroke:none" />
    <path
       inkscape:export-ydpi="7.7063322"
       inkscape:export-xdpi="7.7063322"
       inkscape:export-filename="C:\Documents and Settings\Molumen\Desktop\path3511111.png"
       sodipodi:nodetypes="ccccsssc"
       id="path1950"
       d="m 557.66831,341.95542 -105.79552,0 c -28.00438,0 -50.54943,22.72821 -50.54943,50.96011 l 0,103.21578 c 0.90647,22.0374 4.39325,8.10583 11.03019,-16.2991 7.71353,-28.36346 32.83418,-53.15353 63.42666,-71.73229 23.35029,-14.18046 49.48645,-23.23557 97.06123,-24.097 26.98102,-0.48851 24.59904,-35.01663 -15.17313,-42.0475 z"
       style="opacity:0.55364805;fill:url(#linearGradient2998);fill-opacity:1;fill-rule:evenodd;stroke:none"
       inkscape:connector-curvature="0" />
    <path
       sodipodi:type="arc"
       style="fill:#ffffff;fill-opacity:1;stroke:none"
       id="path3797"
       sodipodi:cx="-22.142857"
       sodipodi:cy="66.35714"
       sodipodi:rx="23.571428"
       sodipodi:ry="24.642857"
       d="m 1.4285717,66.35714 a 23.571428,24.642857 0 1 1 -47.1428567,0 23.571428,24.642857 0 1 1 47.1428567,0 z"
       transform="matrix(0.98350619,0,0,0.8992383,498.40789,370.28098)" />
    <path
       sodipodi:type="arc"
       style="fill:#ffffff;fill-opacity:1;stroke:none"
       id="path3797-9"
       sodipodi:cx="-22.142857"
       sodipodi:cy="66.35714"
       sodipodi:rx="23.571428"
       sodipodi:ry="24.642857"
       d="m 1.4285717,66.35714 a 23.571428,24.642857 0 1 1 -47.1428567,0 23.571428,24.642857 0 1 1 47.1428567,0 z"
       transform="matrix(0.98350619,0,0,0.8992383,549.54608,369.94005)" />
    <path
       style="fill:#616871"
       d="m 563.16459,363.72388 c -6.71337,0 -13.69894,3.35147 -17.83871,8.56135 -0.83581,1.05188 -1.61528,1.92705 -1.73018,1.93898 -0.11487,0.0119 -1.07523,-0.47043 -2.14779,-1.07389 -1.07257,-0.60346 -3.59863,-1.83626 -5.60816,-2.74441 -21.33097,-9.64011 -45.83798,-8.72646 -66.40294,2.50576 l -2.6251,1.43187 -0.6861,-0.89492 c -3.87592,-4.95722 -8.89049,-8.17031 -14.34852,-9.24745 -18.25195,-3.60209 -33.07621,16.23471 -26.25094,35.11049 1.35073,3.73561 3.3634,6.92711 5.99595,9.51594 l 2.05832,2.02847 -1.04408,2.35661 c -4.01141,8.86152 -6.74713,18.55535 -7.93494,28.13016 l -0.50712,4.11661 -1.67052,1.70034 c -6.80225,6.93419 -12.1243,17.15121 -13.69225,26.28067 -0.71235,4.14786 -0.53895,12.07763 0.32814,15.95932 6.69794,29.98418 43.10202,52.65015 88.41793,55.03727 5.97259,0.31463 15.24227,0.11748 21.59737,-0.47729 26.22638,-2.45445 49.755,-11.91267 65.09039,-26.13152 9.4257,-8.73944 14.83826,-17.62822 17.30176,-28.45829 0.87201,-3.83356 1.03733,-11.91253 0.32813,-15.78033 -0.87122,-4.75156 -2.89268,-10.70756 -4.98171,-14.55729 -1.98749,-3.66258 -6.21411,-9.36471 -9.09834,-12.29017 -1.18096,-1.19789 -1.31267,-1.52389 -1.58102,-3.75864 -1.17866,-9.81527 -3.99042,-20.17022 -7.78579,-28.72677 l -1.4617,-3.28136 1.73018,-1.76 c 5.03644,-5.06827 7.47256,-10.6238 7.78579,-17.86847 0.33721,-7.79981 -1.588,-13.85386 -6.11528,-19.18101 -4.36438,-5.13544 -11.07012,-8.44203 -17.12277,-8.44203 z m -116.10075,3.75864 c 3.43502,-0.0959 6.99737,0.812 10.3214,2.92339 2.4169,1.53519 4.39261,3.53642 6.32409,6.38373 1.07348,1.58248 1.31723,1.78982 2.29696,1.78982 0.66445,0 1.75362,-0.39865 2.74441,-0.9844 10.61722,-6.2769 22.11761,-9.6633 34.21571,-10.08271 13.11084,-0.45449 26.34812,2.90167 37.67607,9.51593 3.92898,2.2941 4.48977,2.19924 6.65223,-0.9844 2.79616,-4.11667 7.4785,-7.26584 12.26038,-8.29289 2.34135,-0.50286 6.24502,-0.23433 8.91934,0.62645 2.72739,0.87785 6.45014,3.40113 8.4719,5.72745 4.1807,4.81049 6.1985,11.59096 5.48884,18.40542 -0.6011,5.77206 -2.93232,10.51205 -7.15935,14.52745 -1.78064,1.69151 -2.74441,2.83406 -2.74441,3.28136 0,0.37933 0.47858,1.63934 1.04406,2.80407 1.76863,3.64279 3.93531,9.3309 5.13087,13.3939 1.8221,6.19226 2.42952,9.29114 3.66916,19.09152 0.13005,1.02817 0.65113,1.79992 2.83391,4.17626 5.05122,5.49926 8.54172,11.14178 10.73902,17.39118 1.90721,5.42438 1.97379,6.31794 0.98441,11.09695 -3.1334,15.13547 -8.09064,24.68406 -17.24209,33.23118 -4.99514,4.66528 -9.26225,7.50207 -15.60141,10.35119 -13.12805,5.90034 -26.55894,8.78909 -53.66527,11.48474 -8.43415,0.83872 -24.42828,1.06883 -30.72553,0.44745 -8.6306,-0.85161 -16.44453,-2.14688 -25.77365,-4.23592 -6.10287,-1.36661 -8.22146,-2.28035 -14.55734,-6.38374 -18.12688,-11.73973 -27.95095,-27.74826 -27.14586,-44.17897 0.54512,-11.12517 4.73398,-20.17554 14.05022,-30.39728 1.62452,-1.7824 1.72255,-1.98837 1.93899,-4.14644 1.11221,-11.09007 4.14559,-21.86775 8.97902,-31.94846 0.51283,-1.06958 0.79295,-2.13893 0.6861,-2.5356 -0.10075,-0.37396 -0.83205,-1.19934 -1.61085,-1.84949 -6.53757,-5.4578 -9.66285,-14.24213 -8.0841,-22.67118 2.02486,-10.81087 10.10441,-17.71293 18.88277,-17.95796 z m 0.14916,7.7261 c -2.63256,-0.0989 -5.35946,0.52301 -7.54714,1.81966 -4.49256,2.66275 -7.32144,7.86268 -7.33834,13.45356 -0.0146,4.84419 1.51365,8.61168 4.74307,11.72338 1.65211,1.59189 1.99131,1.78874 2.98306,1.70034 1.02204,-0.091 1.31382,-0.41251 3.43053,-3.40067 4.28422,-6.04812 7.61144,-9.65392 13.5431,-14.7661 1.21105,-1.04374 1.90915,-1.89503 1.90915,-2.32678 0,-1.81073 -4.06237,-5.87258 -7.21901,-7.21899 -1.37723,-0.58743 -2.92488,-0.92505 -4.50442,-0.9844 z m 114.84785,0.11932 c -2.95502,0 -3.49879,0.10446 -5.16069,0.86508 -3.17706,1.4541 -6.55054,4.65214 -7.12952,6.80136 -0.19738,0.73266 0.2607,1.27725 4.71324,5.39933 5.02893,4.65569 7.5987,7.59698 11.09699,12.70779 1.8379,2.68511 2.02012,2.86372 3.07255,2.86372 0.93443,0 1.42177,-0.32381 2.95323,-1.81965 3.25951,-3.18377 4.72517,-6.68318 4.71324,-11.33559 -0.0171,-6.64844 -3.3399,-11.99505 -9.06851,-14.61696 -1.66189,-0.76065 -2.23549,-0.86508 -5.19053,-0.86508 z m -0.26847,3.54983 c 1.37003,-0.0495 2.73027,0.21718 3.9973,0.80543 5.96225,2.76809 8.43976,10.88063 5.19053,17.06304 -0.47438,0.9026 -1.12272,1.82746 -1.43187,2.08813 -0.51587,0.43495 -0.67546,0.33972 -1.78984,-1.34237 -2.1811,-3.2922 -5.89638,-7.54427 -9.75461,-11.12677 l -3.78848,-3.52 1.28271,-1.25288 c 1.75134,-1.70125 4.01087,-2.63211 6.29426,-2.71458 z m -115.62345,0.0298 c 2.50925,-0.0899 5.01121,0.8602 6.9207,2.71458 l 1.31255,1.25288 -3.699,3.4305 c -3.59882,3.34056 -7.78667,8.12948 -9.99326,11.39526 -0.60374,0.89355 -1.15326,1.61084 -1.22305,1.61084 -0.0697,0 -0.52312,-0.54379 -0.9844,-1.19322 -4.59211,-6.465 -1.81303,-16.46123 5.19052,-18.76338 0.81392,-0.26755 1.63952,-0.41749 2.47594,-0.44746 z m 81.34808,28.75661 c -3.51897,0 -6.76545,0.74308 -10.44071,2.38644 -2.69597,1.20546 -3.55991,1.81612 -6.14511,4.23592 -2.44563,2.28917 -3.29851,3.32579 -4.41494,5.45899 -1.93738,3.70182 -2.50576,5.98343 -2.50576,10.05288 0,4.06946 0.56838,6.35105 2.50576,10.05287 1.11643,2.13321 1.96931,3.1698 4.41494,5.45899 2.5751,2.41035 3.45966,3.02723 6.14511,4.23593 1.72969,0.77854 4.18021,1.62866 5.459,1.87932 12.89567,2.52782 25.71126,-5.16825 28.42857,-17.06305 0.52342,-2.29254 0.52597,-6.85492 0,-9.15796 -2.31314,-10.12834 -12.22335,-17.54033 -23.44686,-17.54033 z m -50.65239,0.17898 c -3.92639,0.0179 -4.79661,0.11585 -7.1295,0.83526 -7.46348,2.30158 -12.9276,7.4595 -15.51192,14.64677 -0.65832,1.83081 -0.7756,2.76587 -0.7756,6.47322 0,4.55729 0.48124,6.62621 2.2373,9.87389 3.24021,5.99254 9.21482,10.29242 16.377,11.78305 4.39496,0.91471 10.09853,0.39973 14.19937,-1.28271 12.63065,-5.182 18.01365,-18.55612 12.05157,-29.97965 -2.38246,-4.56487 -6.03713,-8.03472 -10.67936,-10.17221 -4.04944,-1.86453 -5.75561,-2.20053 -10.76886,-2.17762 z m -1.2827,3.57966 c 0.84898,-0.0363 1.76203,0.002 2.74441,0.0597 6.44812,0.37787 11.54332,3.11425 15.15395,8.14372 2.36354,3.29233 3.16205,5.87962 3.16205,10.17221 0,4.29259 -0.79851,6.87986 -3.16205,10.1722 -2.85202,3.97273 -6.60296,6.45064 -11.45496,7.60677 -2.96858,0.70735 -7.02713,0.78754 -9.72478,0.17899 -6.79715,-1.53336 -12.73638,-7.00359 -14.49767,-13.36407 -0.67461,-2.43619 -0.67461,-6.75161 0,-9.18779 1.40398,-5.07014 5.43408,-9.66637 10.44071,-11.90237 2.68051,-1.19715 4.79139,-1.77028 7.33834,-1.87932 z m 51.12966,0.0298 c 5.68722,-0.26209 10.27405,1.32097 14.40819,4.92203 4.32092,3.76379 6.29425,7.9871 6.29425,13.42373 0,5.43662 -1.97333,9.65993 -6.29425,13.42372 -2.61325,2.27628 -5.61839,3.79241 -8.8597,4.50441 -4.29623,0.94377 -9.41776,0.42167 -13.39394,-1.40203 -10.25318,-4.70273 -14.08993,-16.82587 -8.20342,-25.89288 3.55759,-5.47978 9.23454,-8.66493 16.04887,-8.97898 z m -44.35811,15.27322 c -2.18368,0.0133 -3.4661,0.50926 -4.95189,1.87932 -2.27151,2.09458 -2.76316,5.07366 -1.31254,7.78576 0.91065,1.70259 2.12368,2.68742 4.08678,3.34101 4.60309,1.53257 9.39665,-1.72614 9.39665,-6.38373 0,-3.89035 -3.00579,-6.64805 -7.219,-6.62236 z m 40.59945,0 c -3.92337,-0.0352 -6.88383,2.41743 -7.15934,5.96609 -0.25171,3.24213 1.08561,5.43966 4.08679,6.7417 2.25028,0.97628 4.00126,0.92332 6.20477,-0.14915 3.71057,-1.80597 4.98452,-5.56566 3.04272,-9.00882 -1.33301,-2.36361 -3.3358,-3.52443 -6.17494,-3.54982 z m -54.67951,29.0549 c -18.76711,0 -33.85774,12.03965 -33.85774,26.99661 0,14.95695 15.09063,26.9966 33.85774,26.9966 l 73.50263,0 c 18.76711,0 33.88758,-12.03965 33.88758,-26.9966 0,-14.95696 -15.12047,-26.99661 -33.88758,-26.99661 l -73.50263,0 z"
       id="path3000"
       inkscape:connector-curvature="0" />
    <path
       style="fill:url(#linearGradient5333);fill-opacity:1;fill-rule:evenodd"
       d="m 447.42181,363.75371 c -5.29987,0 -10.27944,1.87331 -14.40818,5.42915 -3.96035,3.41084 -6.46544,7.34549 -8.05427,12.6183 -0.65444,2.17184 -0.76796,3.25856 -0.77559,7.21898 -0.0116,5.45236 0.54443,7.95722 2.86374,12.46915 1.31409,2.55644 5.00377,7.26622 5.96612,7.60678 0.6448,0.22818 0.55765,0.56963 -0.83526,3.54983 -3.50888,7.5075 -6.44577,18.17901 -7.51731,27.20541 -0.34856,2.93609 -0.47856,3.26658 -1.52136,4.38509 -10.22418,10.9664 -14.8795,22.20053 -14.37836,34.7227 0.28406,7.09795 1.69241,12.32926 5.10104,18.82305 3.28566,6.25948 7.1257,10.87577 14.76615,17.77898 7.96107,7.19288 14.15543,11.53162 22.73093,15.92949 12.44122,6.38039 28.48103,10.74728 43.43337,11.84271 8.18511,0.59965 19.47024,-0.0259 30.15874,-1.67051 36.35506,-5.59389 60.9315,-18.95623 71.86195,-39.07796 4.81067,-8.85594 6.66504,-20.14984 4.95188,-30.24813 -0.6369,-3.75431 -3.87542,-12.00537 -7.15935,-18.19661 -2.8519,-5.37678 -5.40858,-8.93913 -9.81427,-13.72203 -1.48946,-1.61698 -1.47994,-1.61525 -2.20746,-5.81694 -1.25407,-7.24257 -3.79805,-15.50553 -6.74173,-21.98508 l -1.40203,-3.07254 1.31254,-1.16339 c 5.96373,-5.29021 9.22943,-14.46602 8.0841,-22.70101 -1.69734,-12.20387 -10.81208,-21.30101 -21.9255,-21.86576 -4.05713,-0.20617 -6.46895,0.25576 -10.2319,1.90915 -3.21032,1.41057 -6.62077,4.03371 -8.80002,6.77153 -1.17353,1.47429 -1.21994,1.48477 -1.99866,1.01423 -1.48752,-0.89885 -6.46692,-3.31326 -8.91935,-4.32542 -4.97308,-2.05245 -10.87272,-3.67379 -17.12277,-4.71322 -3.93508,-0.65443 -13.90068,-0.8994 -17.98786,-0.44745 -10.09305,1.11603 -19.13084,3.86511 -27.65298,8.4122 l -2.89357,1.55118 -0.50712,-0.6861 c -4.65985,-6.13536 -11.24524,-9.54576 -18.37566,-9.54576 z m -1.10373,14.79593 c 2.20899,-0.10052 4.15269,0.66254 6.11528,2.32678 l 1.67051,1.40203 -3.90781,3.60949 c -2.14693,1.978 -4.84248,4.71758 -5.99595,6.11526 -1.15347,1.39765 -2.69094,3.40753 -3.43052,4.47457 l -1.37221,1.96881 -0.83525,-1.34237 c -1.49092,-2.34711 -1.92807,-3.68626 -2.08815,-6.29423 -0.35129,-5.72238 2.73121,-10.55361 7.54714,-11.87255 0.80432,-0.22028 1.56064,-0.35429 2.29696,-0.38779 z m 113.38616,0 c 2.72172,0.0298 5.71403,1.42802 7.54714,3.66915 3.19585,3.90721 3.51579,10.09657 0.74577,14.52745 -0.43427,0.69463 -0.91154,1.32653 -1.04408,1.40203 -0.1325,0.0755 -0.6849,-0.53549 -1.22305,-1.3722 -2.39143,-3.71817 -10.92283,-12.79802 -12.97632,-13.81152 -0.55939,-0.2761 -0.52699,-0.34734 0.14915,-1.22305 0.87422,-1.13221 3.24727,-2.55235 4.98172,-2.98305 0.58345,-0.14489 1.19157,-0.2157 1.81967,-0.20881 z m -33.76825,31.56067 c 2.97665,-0.009 6.03221,0.64496 8.94918,1.96881 4.63621,2.10413 8.60407,6.6726 9.93359,11.42508 0.66254,2.36829 0.66254,6.58085 0,8.94915 -1.78999,6.39849 -7.69317,11.6299 -14.64683,12.97627 -6.65014,1.28762 -12.96301,-0.4789 -17.77904,-4.95186 -3.89512,-3.61766 -5.5485,-7.36719 -5.5485,-12.49898 0,-5.09841 1.68599,-8.91623 5.5485,-12.49899 3.78953,-3.51503 8.582,-5.3545 13.5431,-5.36948 z m -49.75746,0.0895 c 2.10609,-0.03 4.16003,0.15948 5.54849,0.59661 5.15811,1.62392 8.43634,4.00584 11.18648,8.11389 2.44407,3.65089 3.33976,8.36585 2.38645,12.52881 -1.5979,6.97791 -7.54894,12.52818 -15.03463,13.99051 -7.76422,1.51674 -15.4686,-1.37239 -19.95668,-7.45763 -2.06325,-2.7975 -3.04515,-5.48219 -3.28136,-8.97898 -0.54645,-8.08918 4.92532,-15.48709 13.30445,-18.01762 1.58803,-0.47958 3.74071,-0.74554 5.8468,-0.77559 z m 45.28287,14.61695 c -0.23778,-0.004 -0.47746,0.0108 -0.71594,0.0298 -1.73433,0.13873 -3.46933,0.88786 -4.83256,2.35661 -2.34569,2.52724 -2.34569,5.94461 0,8.47186 0.64869,0.6989 1.77811,1.51486 2.50577,1.81966 4.69155,1.9652 10.06327,-1.27693 10.02308,-6.0556 -0.0335,-3.98777 -3.41389,-6.56778 -6.98035,-6.62236 z m -39.70455,0.0597 c -1.0596,0.005 -2.18346,0.24821 -3.3112,0.77559 -2.42868,1.13576 -3.62875,2.7736 -3.81832,5.19051 -0.2421,3.08648 1.33332,5.58196 4.29561,6.77152 2.36263,0.94875 5.87793,0.25431 7.81562,-1.55119 4.79909,-4.4717 0.74007,-11.21286 -4.98171,-11.18643 z m 54.26188,41.67321 c 5.79402,0.19761 8.59978,7.00592 6.26443,15.21355 -2.33534,8.20764 -8.94231,14.72507 -14.73632,14.52746 -5.79401,-0.19762 -8.59977,-7.03575 -6.26443,-15.24339 2.33534,-8.20763 8.94231,-14.69524 14.73632,-14.49762 z m -76.93315,0.89491 c 5.79401,-0.19761 12.40099,6.28999 14.73632,14.49762 2.33535,8.20764 -0.47041,15.01594 -6.26443,15.21356 -5.79401,0.19762 -12.40098,-6.28999 -14.73632,-14.49762 -2.33533,-8.20764 0.47042,-15.01594 6.26443,-15.21356 z"
       id="path3002"
       inkscape:connector-curvature="0" />
  </g>
</svg>
